<svg version="1.1" id="Layer_1" xmlns="http://www.w3.org/2000/svg" xmlns:xlink="http://www.w3.org/1999/xlink" x="0px" y="0px"
	 width="100%" viewBox="0 0 447 559" enable-background="new 0 0 447 559" xml:space="preserve">
<path fill="#000000" opacity="1.000000" stroke="none" 
	d="
M237.000000,560.000000 
	C158.000015,560.000000 79.500038,560.000000 1.000042,560.000000 
	C1.000028,373.666718 1.000028,187.333466 1.000014,1.000142 
	C149.999893,1.000095 298.999786,1.000095 447.999756,1.000047 
	C447.999847,187.333191 447.999847,373.666382 447.999939,559.999756 
	C377.833344,560.000000 307.666656,560.000000 237.000000,560.000000 
M332.454315,157.070007 
	C332.256378,157.373154 332.058411,157.676300 331.351135,158.396683 
	C329.570740,161.325439 327.790344,164.254196 325.430603,166.703430 
	C323.628571,158.466492 321.826569,150.229553 320.822021,141.916153 
	C327.809814,141.545349 334.797577,141.174545 343.042938,140.737000 
	C338.959656,138.402618 335.829651,136.447601 332.528748,134.844498 
	C331.719788,134.451645 330.222229,134.970703 329.268951,135.489182 
	C327.435120,136.486649 325.839264,137.924683 323.998474,138.905457 
	C322.798950,139.544571 321.341370,139.699371 319.317810,140.064728 
	C318.864044,140.041229 318.410309,140.017715 317.805054,139.653412 
	C317.549866,139.763245 317.294708,139.873062 316.481873,139.727844 
	C316.291321,139.151978 316.100739,138.576111 316.199219,137.380508 
	C323.059998,127.861992 329.920807,118.343468 337.227203,108.206726 
	C333.208710,106.980721 329.491974,105.846779 326.870819,105.047081 
	C325.989532,108.731293 326.036377,112.218040 324.433777,114.590736 
	C317.879303,124.294930 310.316101,133.347595 304.184845,143.293900 
	C301.546265,147.574188 298.636169,144.002533 296.292389,145.463165 
	C296.196564,143.341904 295.431854,140.962570 296.131775,139.148300 
	C298.139008,133.945496 300.741608,128.972519 303.106415,123.907440 
	C305.335175,119.133675 303.038055,114.624413 297.710571,113.968712 
	C294.529816,113.577225 291.258545,113.921394 287.581299,113.529274 
	C284.783295,114.852600 280.917236,115.085823 281.163666,120.053062 
	C284.645813,120.060745 288.079041,120.665222 289.819885,115.977753 
	C293.476990,115.582291 296.197937,117.085510 296.790710,120.685089 
	C297.327240,123.942986 291.910522,129.848129 288.535278,129.936722 
	C285.258453,130.022751 281.903412,129.097214 278.707214,129.531769 
	C276.855042,129.783600 273.922119,131.685883 273.754242,133.113388 
	C272.894775,140.421936 275.824646,143.062454 283.423279,142.949402 
	C284.960419,142.926544 287.674164,143.029999 287.856812,143.655701 
	C289.100922,147.918030 292.781067,148.227707 295.974609,149.765625 
	C299.947693,151.678940 303.474274,154.519470 306.867859,156.745834 
	C307.649170,153.202438 308.331665,150.107224 309.623474,146.726379 
	C310.565582,145.349594 311.507690,143.972824 312.499176,142.679474 
	C312.499176,142.679474 312.583435,142.631516 313.203308,142.564545 
	C314.123810,147.111053 315.044312,151.657562 315.953003,156.145920 
	C314.179504,157.079880 312.639038,157.891098 310.372681,159.084610 
	C315.551758,163.012146 319.566101,167.449463 326.660217,168.230957 
	C327.086029,168.917130 327.772827,169.558792 327.898560,170.296127 
	C329.781921,181.339447 336.144104,185.233597 347.887451,181.280273 
	C345.631195,180.641418 344.404846,180.210724 343.143250,179.951508 
	C337.842377,178.862381 335.133423,174.933258 335.080688,168.166946 
	C335.038849,162.798569 337.693817,158.896500 342.316925,158.597321 
	C345.113434,161.882812 347.967560,165.121338 350.692871,168.464859 
	C354.753601,173.446777 357.669708,171.278549 359.706879,167.078552 
	C360.875092,164.669952 360.692657,160.669434 359.464111,158.212830 
	C355.943573,151.173264 347.100586,148.797012 338.975037,151.872223 
	C338.975037,151.872223 338.912201,151.826309 338.250580,151.897644 
	C337.134430,152.915878 336.018280,153.934113 334.974121,154.979599 
	C334.974121,154.979599 335.001251,154.907578 334.477539,155.080093 
	C334.296417,155.386673 334.115295,155.693268 334.003540,155.995056 
	C334.003540,155.995056 333.996094,155.925949 333.461060,156.065948 
	C333.285004,156.374832 333.108978,156.683716 332.997955,157.001495 
	C332.997955,157.001495 332.995789,156.935913 332.454315,157.070007 
M67.703270,201.409653 
	C70.438652,202.655228 73.174034,203.900803 75.928688,205.082672 
	C75.928688,205.082672 75.863220,205.094604 75.870567,206.002472 
	C75.992218,209.669373 76.113869,213.336288 76.120544,217.747055 
	C76.144012,218.497711 76.167488,219.248352 75.811913,220.569229 
	C77.594139,222.542160 79.376366,224.515091 81.386253,226.740051 
	C78.402679,229.076920 74.680756,228.160263 71.122452,227.377029 
	C66.677490,226.398605 62.369736,224.492950 57.894451,224.026382 
	C50.939022,223.301254 45.811443,231.311371 49.176960,240.998138 
	C50.280556,239.592941 51.364056,238.680649 51.847698,237.518677 
	C54.269306,231.700806 57.450203,230.227417 63.361092,232.299026 
	C65.191475,232.940521 67.127342,233.925064 68.955200,233.809357 
	C74.505424,233.457993 78.187012,235.700836 81.021942,240.926041 
	C81.335579,239.664764 81.649231,238.403473 81.962845,237.142197 
	C82.981804,233.044159 82.695648,227.428757 85.307289,225.182434 
	C89.913315,221.220734 90.234245,217.026093 90.330193,211.443558 
	C92.737999,210.332153 95.618912,209.621109 95.542648,205.543488 
	C96.954430,203.035812 98.366211,200.528122 100.125938,197.405930 
	C101.439659,195.226532 102.753380,193.047150 103.535851,191.749069 
	C99.980751,190.287292 97.197647,189.492004 94.784592,188.069138 
	C91.143890,185.922379 87.761505,183.337524 84.134087,180.311813 
	C83.779213,179.828629 83.424339,179.345428 83.112663,178.936188 
	C83.112663,178.936188 83.186470,178.892731 83.073662,178.109756 
	C84.118652,176.113693 85.332344,174.183914 86.151581,172.099152 
	C86.734703,170.615234 87.244087,168.818497 86.912140,167.360397 
	C86.697357,166.416901 84.599770,164.992981 83.881142,165.254608 
	C82.165405,165.879257 79.281181,167.811066 79.469200,168.450958 
	C81.395462,175.006714 76.695427,173.981674 72.769966,174.045425 
	C73.292091,175.645035 73.682953,176.842484 74.039482,178.807693 
	C73.978226,179.828690 73.916969,180.849701 73.276283,182.285172 
	C73.325439,183.365891 73.374596,184.446609 73.432068,185.709961 
	C75.180931,185.362518 76.580238,185.084518 78.582291,185.183929 
	C84.026947,188.826035 89.471603,192.468140 95.138657,196.567566 
	C95.420517,196.745834 95.702370,196.924088 95.994591,197.543640 
	C95.994591,197.543640 95.981209,197.984833 95.357147,198.286728 
	C94.188461,200.171875 93.019768,202.057007 91.166542,204.047424 
	C89.843155,203.946701 88.342247,204.216568 87.226624,203.682129 
	C81.950150,201.154449 76.766113,198.431702 71.573402,195.731781 
	C64.365425,191.984024 60.586063,194.371613 60.081505,203.841064 
	C60.507957,206.894547 60.740189,209.993912 61.445923,212.981415 
	C61.779675,214.394272 62.897171,215.714325 63.955132,216.784134 
	C64.161263,216.992584 66.501602,215.889297 66.529625,215.325104 
	C66.613358,213.639038 66.605309,210.990952 65.614899,210.386292 
	C62.489040,208.477936 62.970936,205.766220 63.495872,202.804459 
	C63.980991,202.491364 64.466110,202.178284 65.552452,201.875381 
	C66.077667,201.593109 66.602882,201.310837 67.703270,201.409653 
M150.000320,410.999725 
	C150.000320,410.999725 150.008957,411.011322 149.158981,411.033325 
	C146.314011,411.208527 143.820160,410.792480 141.358261,413.797729 
	C136.028305,420.304016 140.374405,425.664856 143.142914,430.397125 
	C145.668076,434.713409 146.019058,437.183838 141.182190,439.976318 
	C136.142456,438.742188 134.716949,434.979828 134.737762,430.232819 
	C130.560852,432.722321 129.661865,437.480591 133.133255,439.434906 
	C136.079346,441.093445 139.634445,441.670288 143.667191,442.847900 
	C150.703644,441.213440 153.130310,437.503113 151.122925,430.786469 
	C150.292801,428.008942 148.894073,425.346985 147.418045,422.829407 
	C145.113098,418.897858 145.755508,416.306274 150.807693,413.849915 
	C154.642090,414.282684 157.079407,415.662476 156.346542,420.296448 
	C156.070786,422.040039 157.140045,423.996338 157.788605,426.640289 
	C159.696899,424.406494 160.831039,423.078888 162.563263,421.912109 
	C162.972305,421.968140 163.381332,422.024170 163.989365,422.666840 
	C164.415192,424.082458 164.841034,425.498047 165.048080,427.655273 
	C162.947540,433.529083 160.413162,439.299927 158.981216,445.332458 
	C158.478394,447.450775 159.972549,451.261444 161.781311,452.482391 
	C167.270020,456.187225 178.083633,452.802551 181.504257,446.976166 
	C176.794403,445.311462 176.073410,445.616180 172.885193,448.735840 
	C171.822739,449.775452 169.476974,450.886444 168.574326,450.394196 
	C167.083450,449.581238 165.085556,447.167053 165.402344,445.996033 
	C167.017792,440.024323 169.068558,434.129852 171.561218,428.470032 
	C172.063019,427.330627 175.113922,427.106842 177.036148,426.904999 
	C177.774582,426.827484 179.418243,428.335510 179.330124,428.533356 
	C178.616943,430.134308 177.712952,431.694305 176.613846,433.063446 
	C175.912506,433.937103 174.780533,434.465088 172.931778,435.809875 
	C177.089279,435.809875 180.148987,436.342438 182.911591,435.664459 
	C185.847046,434.944092 187.412018,432.502075 186.847092,429.122284 
	C186.134857,424.861206 183.175186,422.361664 178.726364,422.309753 
	C176.224838,422.280609 173.725418,422.070862 171.141281,421.179199 
	C164.427353,417.791199 157.713425,414.403229 150.831375,410.653442 
	C150.557831,410.771851 150.284286,410.890228 150.000320,410.999725 
M394.298309,313.125488 
	C388.485474,312.392975 384.287262,315.501038 380.676056,319.335449 
	C377.423523,322.789032 374.387817,322.817810 370.914825,319.168823 
	C369.952911,312.112854 376.588745,311.789307 380.843658,309.132111 
	C377.695648,306.137207 374.349274,306.027985 372.038452,307.850830 
	C367.197998,311.669037 366.672363,317.918030 370.200439,324.293152 
	C372.553406,325.562531 375.154907,328.183655 377.205170,327.806671 
	C380.932617,327.121338 384.332458,324.654358 388.598297,322.941864 
	C389.563080,322.034637 390.448059,320.487732 391.509460,320.355377 
	C393.622498,320.091827 395.832550,320.606110 398.002502,320.799072 
	C397.712067,322.637726 397.931885,324.818512 396.991272,326.221191 
	C396.001404,327.697388 393.901978,328.429504 392.263092,329.502625 
	C393.412415,334.140839 396.731659,333.983582 398.700378,331.439880 
	C400.923035,328.568054 402.764954,324.511353 402.707306,321.003876 
	C402.644012,317.150452 399.920227,313.649292 394.298309,313.125488 
M94.106834,160.700500 
	C93.631744,167.686447 95.831795,173.562622 102.127525,176.998596 
	C107.244431,179.791214 112.733742,179.926834 118.663734,176.771118 
	C119.902023,175.502823 121.374977,174.387909 122.326408,172.932144 
	C123.961823,170.429810 125.272018,167.714920 126.930634,164.335724 
	C128.702911,158.307098 125.685059,150.489761 120.075981,146.579651 
	C113.403442,141.928207 106.229836,142.040558 99.329933,147.154755 
	C93.402779,149.687012 94.421646,154.999908 94.106834,160.700500 
M123.284019,393.050903 
	C116.969872,389.816925 108.070862,395.278351 103.404434,403.565247 
	C100.280838,409.112305 102.891785,417.115326 108.836601,421.020660 
	C109.150558,419.657288 109.751717,418.489197 109.615570,417.414459 
	C108.281952,406.886902 113.813576,398.523865 124.647690,396.168396 
	C127.084618,398.179169 129.521545,400.189941 131.997055,403.030640 
	C132.126862,408.408417 130.756805,413.109772 127.199219,417.438324 
	C122.799690,422.791260 117.596443,424.320892 110.358383,421.622864 
	C115.603432,428.732727 125.256622,427.352631 130.926361,423.478363 
	C140.123215,417.193970 140.277374,407.292175 134.645630,399.323547 
	C131.115585,397.302185 127.585556,395.280823 123.284019,393.050903 
M382.000000,236.000610 
	C382.000000,236.000610 382.000824,235.997787 382.678040,236.209290 
	C388.478516,236.194763 394.304779,235.828735 400.073212,236.251419 
	C407.934540,236.827469 416.852875,232.301483 423.289276,240.632004 
	C423.448883,240.838547 424.178467,240.604691 425.314575,240.534973 
	C424.236115,233.935104 421.994965,228.097977 418.369659,222.314178 
	C417.145905,218.619598 416.078186,214.856918 414.527832,211.304871 
	C414.298981,210.780487 410.788971,210.748489 410.487152,211.344528 
	C408.097290,216.063828 404.269836,214.932739 400.177856,214.827377 
	C403.956360,207.798737 406.268982,206.524582 412.902161,209.016769 
	C410.385590,202.297256 408.292847,196.709412 405.978149,190.528915 
	C403.730072,195.570740 402.732300,199.821594 400.263428,202.888016 
	C396.257019,207.864059 391.742798,212.689163 384.104736,214.118347 
	C380.104431,213.686417 376.104095,213.254471 372.377228,212.241425 
	C378.258972,206.355560 384.074677,200.401672 390.045624,194.607727 
	C394.027374,190.744019 396.952484,184.127716 404.922974,189.408340 
	C405.003418,188.957199 405.083832,188.506073 405.164276,188.054932 
	C402.880280,183.135468 400.596283,178.215988 398.586212,173.886520 
	C393.778687,179.294266 389.753387,184.196381 385.334381,188.713272 
	C376.696228,197.542801 367.838165,206.157196 358.398651,215.105057 
	C357.898621,217.343399 359.227356,218.131836 362.458893,217.932373 
	C368.654449,217.550003 374.859009,217.247482 381.063599,217.147827 
	C381.976685,217.133163 382.910583,218.411148 383.207611,219.311035 
	C378.151001,223.984314 373.070740,228.632568 368.063873,233.358612 
	C367.335632,234.046036 366.312958,235.609039 366.539032,235.898773 
	C367.233398,236.788681 368.488434,237.823776 369.489685,237.788345 
	C373.356720,237.651535 377.209869,237.120712 381.504120,236.701508 
	C381.765961,236.536728 381.930389,236.303314 382.000000,236.000610 
M364.381409,377.277618 
	C361.449493,381.217529 358.240814,384.994141 355.758850,389.199554 
	C355.039185,390.418915 355.760986,393.728760 356.926392,394.595642 
	C360.918701,397.565491 365.864655,396.032196 370.304382,391.117371 
	C374.587372,386.376068 375.112366,382.276062 371.932678,377.270355 
	C370.441162,367.279388 359.182007,362.902039 350.192749,364.131744 
	C343.146423,365.095612 342.186432,372.200592 339.245026,376.949219 
	C338.329651,378.427032 340.718567,381.951538 341.891052,385.413940 
	C349.493347,371.146149 349.704834,370.784698 355.079254,371.016785 
	C359.311310,371.199493 363.278564,372.208862 364.381409,377.277618 
M399.417816,263.877441 
	C399.568665,263.962616 399.719543,264.047821 400.072968,264.650787 
	C404.857727,270.462219 403.436523,273.208954 397.347504,276.545837 
	C393.723358,278.531952 388.799042,278.614960 384.450592,278.656921 
	C381.153717,278.688721 377.843201,277.304199 374.667786,276.579376 
	C374.667786,279.730255 374.667786,284.225037 374.667786,287.650360 
	C378.358978,286.671722 381.587341,285.459656 384.916199,285.035034 
	C388.139221,284.623901 391.465546,285.053986 394.746582,285.060028 
	C405.077148,285.079071 410.620178,276.230408 405.753265,267.409637 
	C404.729004,265.553314 403.334991,263.900970 402.952240,262.038971 
	C406.231628,261.684601 409.503723,261.156097 412.792175,261.018555 
	C417.233093,260.832764 421.700012,261.128296 426.124756,260.799652 
	C427.164764,260.722412 429.091003,258.543152 428.887024,258.063568 
	C427.699005,255.270538 425.998840,252.695099 424.419128,250.077866 
	C424.413208,250.068100 423.406311,250.423630 423.266327,250.769958 
	C421.517242,255.097565 417.591797,254.634460 414.084473,254.928848 
	C405.661011,255.635803 397.218414,256.804749 388.803497,256.656311 
	C384.028717,256.572083 378.005310,259.612518 374.366943,253.407135 
	C374.176941,253.083099 372.952881,253.365372 372.367859,253.365372 
	C372.729675,258.805817 373.067657,263.887451 373.405609,268.969116 
	C373.795258,269.369781 374.184906,269.770447 374.574554,270.171112 
	C376.535065,261.321808 383.136017,263.227570 388.572449,262.807587 
	C391.989960,262.543610 395.466614,263.044983 398.968140,263.374390 
	C398.968140,263.374390 399.133820,263.442047 399.417816,263.877441 
M266.774323,87.208145 
	C272.497620,96.239128 269.815460,100.729202 255.552505,105.122406 
	C257.427521,106.632980 258.989075,107.979187 260.640076,109.204826 
	C265.883423,113.097260 269.276917,119.294624 266.488983,123.063950 
	C263.878174,126.593758 259.124695,128.946884 254.856964,130.713318 
	C251.471100,132.114761 247.546341,128.879944 248.241013,125.299973 
	C249.497055,118.826889 247.531616,111.439705 253.129837,106.043091 
	C253.532516,105.654922 253.896744,104.569000 253.673813,104.288666 
	C250.454453,100.240471 253.718567,96.138779 253.475784,92.090645 
	C253.140182,86.494576 255.300964,83.152390 261.365784,83.271317 
	C261.391663,83.271820 261.429016,82.689529 261.508911,81.915192 
	C254.695908,82.135887 248.447708,77.377022 239.917526,79.922325 
	C242.388092,81.464325 243.874603,82.133965 245.018143,83.178940 
	C246.146240,84.209846 247.894867,85.798241 247.704315,86.835976 
	C246.417099,93.846596 244.659103,100.769707 243.115173,107.734810 
	C242.543091,110.315582 241.719299,112.936386 241.738892,115.533440 
	C241.786255,121.807060 239.656952,125.404495 234.044815,127.611298 
	C233.245544,127.925583 232.596390,128.621628 231.456284,129.445602 
	C241.454407,132.910980 250.888687,135.294891 261.119263,134.795227 
	C271.282990,134.298859 278.765594,123.666931 274.302612,114.503044 
	C272.979736,111.786827 270.523010,109.622833 268.572052,107.188583 
	C276.574127,100.528801 278.956940,95.236809 276.296204,89.554039 
	C274.706879,86.159592 269.533630,83.879333 264.769684,84.689903 
	C265.332733,85.452347 265.801239,86.086746 266.774323,87.208145 
M360.981384,327.524658 
	C356.299713,324.308899 348.762817,324.726196 347.890045,315.292145 
	C345.013580,321.749512 342.833099,326.644470 340.652588,331.539459 
	C347.630096,328.056976 355.029602,329.809784 362.676422,336.950378 
	C361.803864,340.124329 357.427826,342.188690 358.889069,346.302643 
	C361.828796,343.975189 364.093567,340.811951 366.900574,340.219971 
	C374.901886,338.532593 380.799072,343.976013 387.025024,347.826538 
	C387.660126,348.219330 387.936462,349.568146 387.972321,350.489166 
	C388.134094,354.645111 383.279968,360.290741 379.078674,360.989563 
	C371.809937,362.198517 365.211700,358.571411 362.159485,351.844147 
	C361.579468,350.565826 360.483704,349.521484 359.331451,347.973572 
	C356.886902,355.289062 362.583649,366.291809 369.616486,367.675110 
	C374.064545,368.550049 379.453094,368.686798 383.451324,366.939056 
	C391.079071,363.604767 391.378967,356.184448 390.495422,348.860474 
	C391.749908,348.985474 393.004425,349.110474 394.389435,349.248444 
	C394.968567,346.538269 395.408508,344.121002 396.011353,341.745056 
	C396.842773,338.468018 395.844940,337.929413 392.578766,338.510498 
	C389.663574,339.029144 386.224030,339.120148 383.559723,338.048126 
	C376.098541,335.046173 368.918640,331.345032 360.981384,327.524658 
M24.406921,283.812164 
	C31.050381,292.015015 41.923508,293.312744 48.997578,281.425110 
	C50.734428,278.506378 52.659981,275.689758 54.643738,272.930450 
	C57.715157,268.658264 62.356644,268.620514 66.795105,269.242706 
	C70.648468,269.782898 72.662247,272.856750 73.190262,276.563721 
	C73.816170,280.958008 70.637039,283.367706 67.646324,285.609161 
	C66.229584,286.670959 64.312332,287.039673 62.736034,287.925568 
	C62.061474,288.304657 61.381359,289.152679 61.260078,289.880310 
	C61.169159,290.425781 61.820961,291.414124 62.394012,291.699738 
	C66.275604,293.634094 73.990280,290.897705 74.906197,286.923492 
	C75.761963,283.210266 75.851227,279.295135 76.032707,275.457245 
	C76.358261,268.572449 72.488350,264.173248 66.513550,262.050537 
	C60.420986,259.885986 54.136196,259.700806 49.528725,265.575104 
	C47.110111,268.658752 45.375294,272.351898 42.662354,275.111877 
	C39.697334,278.128265 36.261612,281.786652 32.478432,282.602448 
	C28.169939,283.531464 25.493515,279.312683 25.851105,274.925537 
	C26.069786,272.242615 27.414673,269.335632 29.092083,267.182281 
	C30.570757,265.283997 33.212868,264.292023 36.118378,262.391510 
	C28.837856,259.901337 22.820890,261.144226 22.481245,264.860077 
	C21.923306,270.964142 20.751427,277.291412 24.406921,283.812164 
M192.898560,451.976074 
	C192.566467,453.801575 192.266373,455.633606 191.896255,457.451355 
	C190.785828,462.904755 190.138794,468.532928 188.240646,473.699646 
	C187.620880,475.386597 183.714874,475.866241 181.330124,476.890167 
	C183.576294,479.649017 199.321457,482.335876 202.578720,479.965759 
	C196.258896,478.287506 196.410416,473.421906 197.111511,468.817291 
	C198.881836,457.190308 201.020096,445.618927 203.045746,434.031403 
	C203.661850,430.507141 204.067474,426.894470 205.191681,423.530182 
	C205.859360,421.532074 207.494553,419.588623 209.224014,418.374603 
	C209.756088,418.001099 212.055527,420.092712 213.512009,421.104095 
	C214.849594,422.032898 216.141815,423.026978 218.909195,425.062805 
	C219.379425,421.602509 220.647110,417.551392 219.863129,417.105194 
	C216.891876,415.414154 212.454834,413.156433 210.028687,414.277100 
	C204.248383,416.947144 198.488129,420.799133 197.051682,427.922119 
	C195.496887,435.632019 194.317245,443.417542 192.898560,451.976074 
M152.515579,146.165512 
	C152.168793,147.273239 151.822021,148.380981 151.475250,149.488708 
	C151.784943,149.729050 152.094635,149.969391 152.404312,150.209732 
	C156.631531,147.613449 160.858765,145.017166 166.024033,141.844742 
	C158.635040,140.228043 158.649811,140.219482 155.425629,134.650681 
	C153.367386,131.095749 151.438156,127.447517 149.128891,124.060814 
	C145.568588,118.839371 139.779694,117.676079 134.751022,121.434418 
	C131.958344,123.521614 129.830078,126.497795 127.510391,128.958694 
	C126.362183,127.891266 125.121124,126.737511 124.021202,125.714958 
	C122.199448,128.259720 120.403984,130.064636 119.545631,132.239410 
	C119.057297,133.476639 119.819359,136.538635 120.498985,136.695404 
	C126.033661,137.972198 126.580101,143.369827 129.084366,146.926956 
	C131.624756,150.535400 135.137848,154.494766 132.204025,159.745087 
	C131.955505,160.189850 132.556137,161.109116 132.821869,162.009964 
	C137.338745,159.059341 141.447845,156.375092 145.562943,153.686935 
	C142.701202,152.319580 139.630661,151.835205 138.394882,150.067886 
	C135.339493,145.698303 133.221359,140.685150 130.538574,136.039185 
	C128.649139,132.767151 129.657211,129.928558 132.329056,128.314575 
	C134.730774,126.863762 139.191788,125.079506 140.472336,126.152901 
	C146.520737,131.222870 150.850067,137.804871 152.515579,146.165512 
M324.292694,434.010223 
	C326.697723,431.994202 329.792694,430.410522 331.377991,427.880829 
	C336.075043,420.385529 333.940125,413.485321 328.631927,406.978760 
	C324.765839,402.239838 317.130920,399.091766 311.818695,400.626404 
	C306.607788,402.131683 302.057007,408.300598 301.767548,414.572388 
	C301.721405,415.572327 302.621887,416.615967 303.440948,418.427124 
	C306.728271,413.505249 307.445221,408.155853 314.355652,407.872711 
	C320.906219,407.604309 323.826477,410.960693 327.244537,415.734344 
	C323.073944,418.538818 319.192871,421.245056 315.210358,423.792786 
	C312.547058,425.496521 310.071777,427.791382 312.291168,430.708252 
	C314.912537,434.153503 318.742737,436.371979 324.292694,434.010223 
M55.704895,245.873978 
	C52.791405,242.632538 48.789356,244.185791 45.316063,243.403000 
	C37.926094,241.737396 30.667366,239.489487 23.344906,237.477509 
	C22.189966,246.339752 22.189966,246.339752 24.553469,248.310165 
	C27.066099,247.745071 29.280931,246.541779 31.147808,246.945908 
	C40.558056,248.982941 49.944771,251.202896 59.203671,253.836945 
	C64.721428,255.406693 72.034874,254.338455 74.000992,262.315735 
	C74.018990,262.388794 74.592880,262.324829 75.370056,262.324829 
	C76.458405,257.499420 77.570557,252.568497 78.595169,248.025681 
	C75.557411,248.636765 72.719017,249.935104 70.111671,249.572418 
	C65.478531,248.927933 60.985424,247.276794 55.704895,245.873978 
M333.538086,382.885345 
	C330.681122,385.879517 326.186951,387.543884 324.876556,393.426392 
	C327.792389,392.463440 329.658905,391.847015 332.012054,391.069885 
	C336.033142,395.250244 340.310486,399.246613 343.962677,403.750000 
	C345.162201,405.229126 344.977386,408.029633 344.911743,410.210419 
	C344.892975,410.834381 342.531219,411.185364 342.185699,412.041626 
	C341.311432,414.208221 340.971924,416.590546 340.418182,418.886444 
	C342.218231,418.458038 344.503113,418.564819 345.704956,417.476105 
	C347.516541,415.835022 348.571411,413.358612 349.852295,411.384644 
	C350.919678,411.546387 353.405823,412.247284 353.564178,411.896698 
	C355.049438,408.608643 356.136414,405.140686 357.554596,401.110687 
	C349.547394,402.451477 347.413513,396.781799 343.826843,393.460236 
	C339.976440,389.894440 335.011505,386.759949 338.212311,379.741608 
	C337.770294,379.691833 337.328278,379.642090 336.886292,379.592346 
	C335.907959,380.487091 334.929626,381.381836 333.538086,382.885345 
M291.594238,413.969757 
	C290.239990,414.872955 288.885742,415.776154 288.644653,415.936920 
	C291.627899,422.103973 294.652832,427.894012 297.249207,433.870209 
	C299.344116,438.692230 299.968719,443.080170 292.285828,443.082550 
	C291.510620,443.082794 290.390320,445.776062 290.087708,447.346313 
	C289.897644,448.332611 290.784790,450.379150 291.453522,450.501465 
	C292.863068,450.759216 294.770935,450.498383 295.886963,449.664368 
	C297.811035,448.226501 299.287018,446.188965 301.164154,444.174347 
	C302.175720,445.128265 303.175018,446.070648 304.393707,447.219910 
	C306.711060,443.881470 308.809479,440.858459 310.417175,438.542328 
	C308.148499,436.350861 305.921875,434.882721 304.660339,432.823395 
	C302.708221,429.636658 301.502167,426.002686 299.819092,422.638733 
	C298.004791,419.012543 295.151367,415.488159 300.551239,411.834717 
	C300.158661,411.479431 299.766052,411.124146 299.373474,410.768829 
	C296.952972,411.660797 294.532440,412.552765 291.594238,413.969757 
M93.760681,364.395569 
	C88.671440,368.275452 83.302544,371.848480 78.590523,376.142334 
	C75.409309,379.041168 74.579079,383.258728 76.359756,387.506836 
	C77.836334,391.029541 80.444801,393.138489 83.725914,393.646759 
	C83.235100,389.802582 81.327934,385.491547 82.670258,382.802704 
	C84.524719,379.088043 88.534416,376.159943 92.170204,373.709900 
	C95.441521,371.505524 98.014389,366.219025 103.837479,370.840607 
	C103.859680,370.326447 103.881889,369.812286 103.904091,369.298096 
	C101.045158,365.546783 98.186218,361.795441 94.492226,356.948395 
	C94.268585,360.281342 94.152344,362.013702 93.760681,364.395569 
M104.545135,383.966766 
	C97.594482,389.164734 90.643837,394.362732 83.125061,399.985565 
	C87.300781,401.926971 90.350143,403.344696 93.122864,404.633820 
	C99.262169,395.650177 105.813057,387.913971 118.435440,387.478973 
	C114.832741,382.910339 111.551208,378.748932 107.536629,373.657990 
	C106.720802,377.941467 109.834282,381.857941 104.545135,383.966766 
M372.325836,303.287323 
	C373.206879,303.163422 374.137085,303.177490 374.958160,302.885162 
	C376.404999,302.370056 377.864136,301.002869 379.179718,301.158936 
	C384.943573,301.842743 390.645050,303.033417 396.394775,303.862427 
	C399.850891,304.360748 403.354156,304.531860 407.646210,304.924042 
	C405.985382,300.275696 404.726532,296.752441 403.467712,293.229187 
	C401.432526,294.161743 399.402832,295.106598 397.355927,296.012695 
	C397.069611,296.139404 396.698425,296.100952 396.367188,296.095673 
	C392.916260,296.040680 389.434448,296.243805 386.022430,295.847870 
	C381.765411,295.353790 376.658112,296.666138 373.607880,291.165985 
	C373.121765,294.972412 372.635651,298.778870 372.325836,303.287323 
M75.469894,330.876495 
	C76.776024,331.711945 78.082153,332.547424 80.102173,333.839508 
	C81.497459,330.972107 83.647842,328.635101 83.424927,326.552063 
	C83.032089,322.881226 79.292183,322.184540 76.486397,323.151489 
	C72.953476,324.369019 74.043343,327.525757 75.469894,330.876495 
M200.507858,134.087524 
	C200.810303,132.130630 202.000107,129.564728 201.183960,128.375565 
	C200.227493,126.981934 196.642838,125.635178 195.763306,126.309502 
	C193.902161,127.736420 193.057999,130.489777 191.112686,133.897324 
	C194.929947,134.207260 197.413956,134.408951 200.507858,134.087524 
M242.535126,435.967010 
	C244.619339,435.896423 246.973267,436.375610 248.681000,435.537720 
	C249.622513,435.075775 250.107132,432.225891 249.696625,430.761108 
	C248.774338,427.470276 245.558487,427.249939 243.247299,428.351593 
	C240.313599,429.750000 240.175171,432.631012 242.535126,435.967010 
M421.994873,299.860199 
	C419.779999,297.798218 417.238770,296.315186 415.102753,299.483093 
	C414.216553,300.797516 414.115265,303.512848 414.917145,304.815186 
	C415.547394,305.838745 418.725647,306.515076 419.671936,305.828796 
	C421.007812,304.859894 421.328857,302.491669 421.994873,299.860199 
z"/>
<path fill="#764728" opacity="1.000000" stroke="none" 
	d="
M266.522034,86.964645 
	C265.801239,86.086746 265.332733,85.452347 264.769684,84.689903 
	C269.533630,83.879333 274.706879,86.159592 276.296204,89.554039 
	C278.956940,95.236809 276.574127,100.528801 268.572052,107.188583 
	C270.523010,109.622833 272.979736,111.786827 274.302612,114.503044 
	C278.765594,123.666931 271.282990,134.298859 261.119263,134.795227 
	C250.888687,135.294891 241.454407,132.910980 231.456284,129.445602 
	C232.596390,128.621628 233.245544,127.925583 234.044815,127.611298 
	C239.656952,125.404495 241.786255,121.807060 241.738892,115.533440 
	C241.719299,112.936386 242.543091,110.315582 243.115173,107.734810 
	C244.659103,100.769707 246.417099,93.846596 247.704315,86.835976 
	C247.894867,85.798241 246.146240,84.209846 245.018143,83.178940 
	C243.874603,82.133965 242.388092,81.464325 239.917526,79.922325 
	C248.447708,77.377022 254.695908,82.135887 261.508911,81.915192 
	C261.429016,82.689529 261.391663,83.271820 261.365784,83.271317 
	C255.300964,83.152390 253.140182,86.494576 253.475784,92.090645 
	C253.718567,96.138779 250.454453,100.240471 253.673813,104.288666 
	C253.896744,104.569000 253.532516,105.654922 253.129837,106.043091 
	C247.531616,111.439705 249.497055,118.826889 248.241013,125.299973 
	C247.546341,128.879944 251.471100,132.114761 254.856964,130.713318 
	C259.124695,128.946884 263.878174,126.593758 266.488983,123.063950 
	C269.276917,119.294624 265.883423,113.097260 260.640076,109.204826 
	C258.989075,107.979187 257.427521,106.632980 255.552505,105.122406 
	C269.815460,100.729202 272.497620,96.239128 266.522034,86.964645 
z"/>
<path fill="#76492C" opacity="1.000000" stroke="none" 
	d="
M288.027954,113.934860 
	C291.258545,113.921394 294.529816,113.577225 297.710571,113.968712 
	C303.038055,114.624413 305.335175,119.133675 303.106415,123.907440 
	C300.741608,128.972519 298.139008,133.945496 296.131775,139.148300 
	C295.431854,140.962570 296.196564,143.341904 296.292389,145.463165 
	C298.636169,144.002533 301.546265,147.574188 304.184845,143.293900 
	C310.316101,133.347595 317.879303,124.294930 324.433777,114.590736 
	C326.036377,112.218040 325.989532,108.731293 326.870819,105.047081 
	C329.491974,105.846779 333.208710,106.980721 337.227203,108.206726 
	C329.920807,118.343468 323.059998,127.861992 315.763855,137.829163 
	C314.413483,139.729034 313.498474,141.180283 312.583435,142.631516 
	C312.583435,142.631516 312.499176,142.679474 312.119995,142.648712 
	C310.831940,144.082642 309.923035,145.547333 309.014130,147.012024 
	C308.331665,150.107224 307.649170,153.202438 306.867859,156.745834 
	C303.474274,154.519470 299.947693,151.678940 295.974609,149.765625 
	C292.781067,148.227707 289.100922,147.918030 287.856812,143.655701 
	C287.674164,143.029999 284.960419,142.926544 283.423279,142.949402 
	C275.824646,143.062454 272.894775,140.421936 273.754242,133.113388 
	C273.922119,131.685883 276.855042,129.783600 278.707214,129.531769 
	C281.903412,129.097214 285.258453,130.022751 288.535278,129.936722 
	C291.910522,129.848129 297.327240,123.942986 296.790710,120.685089 
	C296.197937,117.085510 293.476990,115.582291 289.257294,115.754944 
	C288.472473,114.999702 288.250214,114.467278 288.027954,113.934860 
M288.078247,138.862244 
	C289.013977,137.567795 289.949707,136.273331 291.011292,134.804794 
	C288.022858,132.240875 285.070984,132.449631 282.337158,134.269623 
	C281.628052,134.741684 281.408020,136.826126 281.781433,137.880096 
	C282.856384,140.914001 285.143494,140.331467 288.078247,138.862244 
z"/>
<path fill="#75482A" opacity="1.000000" stroke="none" 
	d="
M361.304565,327.722198 
	C368.918640,331.345032 376.098541,335.046173 383.559723,338.048126 
	C386.224030,339.120148 389.663574,339.029144 392.578766,338.510498 
	C395.844940,337.929413 396.842773,338.468018 396.011353,341.745056 
	C395.408508,344.121002 394.968567,346.538269 394.389435,349.248444 
	C393.004425,349.110474 391.749908,348.985474 390.493195,348.862976 
	C391.378967,356.184448 391.079071,363.604767 383.451324,366.939056 
	C379.453094,368.686798 374.064545,368.550049 369.616486,367.675110 
	C362.583649,366.291809 356.886902,355.289062 359.331451,347.973572 
	C360.483704,349.521484 361.579468,350.565826 362.159485,351.844147 
	C365.211700,358.571411 371.809937,362.198517 379.078674,360.989563 
	C383.279968,360.290741 388.134094,354.645111 387.972321,350.489166 
	C387.936462,349.568146 387.660126,348.219330 387.025024,347.826538 
	C380.799072,343.976013 374.901886,338.532593 366.900574,340.219971 
	C364.093567,340.811951 361.828796,343.975189 358.889069,346.302643 
	C357.427826,342.188690 361.803864,340.124329 362.676422,336.950378 
	C355.029602,329.809784 347.630096,328.056976 340.652588,331.539459 
	C342.833099,326.644470 345.013580,321.749512 347.890045,315.292145 
	C348.762817,324.726196 356.299713,324.308899 361.304565,327.722198 
z"/>
<path fill="#784B2E" opacity="1.000000" stroke="none" 
	d="
M24.221418,283.473694 
	C20.751427,277.291412 21.923306,270.964142 22.481245,264.860077 
	C22.820890,261.144226 28.837856,259.901337 36.118378,262.391510 
	C33.212868,264.292023 30.570757,265.283997 29.092083,267.182281 
	C27.414673,269.335632 26.069786,272.242615 25.851105,274.925537 
	C25.493515,279.312683 28.169939,283.531464 32.478432,282.602448 
	C36.261612,281.786652 39.697334,278.128265 42.662354,275.111877 
	C45.375294,272.351898 47.110111,268.658752 49.528725,265.575104 
	C54.136196,259.700806 60.420986,259.885986 66.513550,262.050537 
	C72.488350,264.173248 76.358261,268.572449 76.032707,275.457245 
	C75.851227,279.295135 75.761963,283.210266 74.906197,286.923492 
	C73.990280,290.897705 66.275604,293.634094 62.394012,291.699738 
	C61.820961,291.414124 61.169159,290.425781 61.260078,289.880310 
	C61.381359,289.152679 62.061474,288.304657 62.736034,287.925568 
	C64.312332,287.039673 66.229584,286.670959 67.646324,285.609161 
	C70.637039,283.367706 73.816170,280.958008 73.190262,276.563721 
	C72.662247,272.856750 70.648468,269.782898 66.795105,269.242706 
	C62.356644,268.620514 57.715157,268.658264 54.643738,272.930450 
	C52.659981,275.689758 50.734428,278.506378 48.997578,281.425110 
	C41.923508,293.312744 31.050381,292.015015 24.221418,283.473694 
z"/>
<path fill="#76492B" opacity="1.000000" stroke="none" 
	d="
M192.936279,451.573090 
	C194.317245,443.417542 195.496887,435.632019 197.051682,427.922119 
	C198.488129,420.799133 204.248383,416.947144 210.028687,414.277100 
	C212.454834,413.156433 216.891876,415.414154 219.863129,417.105194 
	C220.647110,417.551392 219.379425,421.602509 218.909195,425.062805 
	C216.141815,423.026978 214.849594,422.032898 213.512009,421.104095 
	C212.055527,420.092712 209.756088,418.001099 209.224014,418.374603 
	C207.494553,419.588623 205.859360,421.532074 205.191681,423.530182 
	C204.067474,426.894470 203.661850,430.507141 203.045746,434.031403 
	C201.020096,445.618927 198.881836,457.190308 197.111511,468.817291 
	C196.410416,473.421906 196.258896,478.287506 202.578720,479.965759 
	C199.321457,482.335876 183.576294,479.649017 181.330124,476.890167 
	C183.714874,475.866241 187.620880,475.386597 188.240646,473.699646 
	C190.138794,468.532928 190.785828,462.904755 191.896255,457.451355 
	C192.266373,455.633606 192.566467,453.801575 192.936279,451.573090 
z"/>
<path fill="#794C2F" opacity="1.000000" stroke="none" 
	d="
M385.012604,214.247559 
	C391.742798,212.689163 396.257019,207.864059 400.263428,202.888016 
	C402.732300,199.821594 403.730072,195.570740 405.978149,190.528915 
	C408.292847,196.709412 410.385590,202.297256 412.902161,209.016769 
	C406.268982,206.524582 403.956360,207.798737 400.177856,214.827377 
	C404.269836,214.932739 408.097290,216.063828 410.487152,211.344528 
	C410.788971,210.748489 414.298981,210.780487 414.527832,211.304871 
	C416.078186,214.856918 417.145905,218.619598 418.159576,222.649445 
	C417.949493,222.984695 417.864410,223.061279 417.518158,223.040283 
	C413.217041,218.615616 408.282776,217.857742 402.537415,218.007980 
	C397.606079,218.136963 393.558899,218.657761 390.471313,222.945511 
	C387.875946,226.549759 384.841644,229.837952 382.002502,233.607544 
	C382.002533,234.631943 382.001678,235.314865 382.000854,235.997787 
	C382.000824,235.997787 382.000000,236.000610 381.837311,236.115173 
	C381.463104,236.387543 381.260956,236.556534 381.068176,236.736694 
	C377.209869,237.120712 373.356720,237.651535 369.489685,237.788345 
	C368.488434,237.823776 367.233398,236.788681 366.539032,235.898773 
	C366.312958,235.609039 367.335632,234.046036 368.063873,233.358612 
	C373.070740,228.632568 378.151001,223.984314 383.854614,219.232880 
	C385.000763,218.088242 388.212372,217.424393 385.002686,215.546875 
	C385.008698,214.940536 385.010651,214.594055 385.012604,214.247559 
z"/>
<path fill="#754A2E" opacity="1.000000" stroke="none" 
	d="
M152.716827,145.896362 
	C150.850067,137.804871 146.520737,131.222870 140.472336,126.152901 
	C139.191788,125.079506 134.730774,126.863762 132.329056,128.314575 
	C129.657211,129.928558 128.649139,132.767151 130.538574,136.039185 
	C133.221359,140.685150 135.339493,145.698303 138.394882,150.067886 
	C139.630661,151.835205 142.701202,152.319580 145.562943,153.686935 
	C141.447845,156.375092 137.338745,159.059341 132.821869,162.009964 
	C132.556137,161.109116 131.955505,160.189850 132.204025,159.745087 
	C135.137848,154.494766 131.624756,150.535400 129.084366,146.926956 
	C126.580101,143.369827 126.033661,137.972198 120.498985,136.695404 
	C119.819359,136.538635 119.057297,133.476639 119.545631,132.239410 
	C120.403984,130.064636 122.199448,128.259720 124.021202,125.714958 
	C125.121124,126.737511 126.362183,127.891266 127.510391,128.958694 
	C129.830078,126.497795 131.958344,123.521614 134.751022,121.434418 
	C139.779694,117.676079 145.568588,118.839371 149.128891,124.060814 
	C151.438156,127.447517 153.367386,131.095749 155.425629,134.650681 
	C158.649811,140.219482 158.635040,140.228043 166.024033,141.844742 
	C160.858765,145.017166 156.631531,147.613449 152.404312,150.209732 
	C152.094635,149.969391 151.784943,149.729050 151.475250,149.488708 
	C151.822021,148.380981 152.168793,147.273239 152.716827,145.896362 
z"/>
<path fill="#794F33" opacity="1.000000" stroke="none" 
	d="
M323.903168,434.107239 
	C318.742737,436.371979 314.912537,434.153503 312.291168,430.708252 
	C310.071777,427.791382 312.547058,425.496521 315.210358,423.792786 
	C319.192871,421.245056 323.073944,418.538818 327.244537,415.734344 
	C323.826477,410.960693 320.906219,407.604309 314.355652,407.872711 
	C307.445221,408.155853 306.728271,413.505249 303.440948,418.427124 
	C302.621887,416.615967 301.721405,415.572327 301.767548,414.572388 
	C302.057007,408.300598 306.607788,402.131683 311.818695,400.626404 
	C317.130920,399.091766 324.765839,402.239838 328.631927,406.978760 
	C333.940125,413.485321 336.075043,420.385529 331.377991,427.880829 
	C329.792694,430.410522 326.697723,431.994202 323.903168,434.107239 
M319.298584,429.506592 
	C324.562286,433.133270 326.148438,427.657318 328.693390,425.353302 
	C329.819061,424.334167 329.521667,421.743134 330.074127,418.768188 
	C326.580536,420.834320 324.328339,421.700256 322.730255,423.243561 
	C321.159393,424.760468 320.252594,426.965057 319.298584,429.506592 
z"/>
<path fill="#76492B" opacity="1.000000" stroke="none" 
	d="
M359.071167,214.860657 
	C367.838165,206.157196 376.696228,197.542801 385.334381,188.713272 
	C389.753387,184.196381 393.778687,179.294266 398.586212,173.886520 
	C400.596283,178.215988 402.880280,183.135468 405.164276,188.054932 
	C405.083832,188.506073 405.003418,188.957199 404.922974,189.408340 
	C396.952484,184.127716 394.027374,190.744019 390.045624,194.607727 
	C384.074677,200.401672 378.258972,206.355560 372.059387,212.785141 
	C370.833008,214.169983 369.924500,215.011108 368.576508,215.927948 
	C365.115082,215.622665 362.093109,215.241653 359.071167,214.860657 
z"/>
<path fill="#774B2D" opacity="1.000000" stroke="none" 
	d="
M56.069317,245.960373 
	C60.985424,247.276794 65.478531,248.927933 70.111671,249.572418 
	C72.719017,249.935104 75.557411,248.636765 78.595169,248.025681 
	C77.570557,252.568497 76.458405,257.499420 75.370056,262.324829 
	C74.592880,262.324829 74.018990,262.388794 74.000992,262.315735 
	C72.034874,254.338455 64.721428,255.406693 59.203671,253.836945 
	C49.944771,251.202896 40.558056,248.982941 31.147808,246.945908 
	C29.280931,246.541779 27.066099,247.745071 24.553469,248.310165 
	C22.189966,246.339752 22.189966,246.339752 23.344906,237.477509 
	C30.667366,239.489487 37.926094,241.737396 45.316063,243.403000 
	C48.789356,244.185791 52.791405,242.632538 56.069317,245.960373 
z"/>
<path fill="#75482A" opacity="1.000000" stroke="none" 
	d="
M171.225052,421.942474 
	C173.725418,422.070862 176.224838,422.280609 178.726364,422.309753 
	C183.175186,422.361664 186.134857,424.861206 186.847092,429.122284 
	C187.412018,432.502075 185.847046,434.944092 182.911591,435.664459 
	C180.148987,436.342438 177.089279,435.809875 172.931778,435.809875 
	C174.780533,434.465088 175.912506,433.937103 176.613846,433.063446 
	C177.712952,431.694305 178.616943,430.134308 179.330124,428.533356 
	C179.418243,428.335510 177.774582,426.827484 177.036148,426.904999 
	C175.113922,427.106842 172.063019,427.330627 171.561218,428.470032 
	C169.068558,434.129852 167.017792,440.024323 165.402344,445.996033 
	C165.085556,447.167053 167.083450,449.581238 168.574326,450.394196 
	C169.476974,450.886444 171.822739,449.775452 172.885193,448.735840 
	C176.073410,445.616180 176.794403,445.311462 181.504257,446.976166 
	C178.083633,452.802551 167.270020,456.187225 161.781311,452.482391 
	C159.972549,451.261444 158.478394,447.450775 158.981216,445.332458 
	C160.413162,439.299927 162.947540,433.529083 165.399170,427.090393 
	C167.035416,424.189087 168.359085,421.835724 163.790375,422.080200 
	C163.381332,422.024170 162.972305,421.968140 162.398804,421.530701 
	C165.674820,416.385986 168.204559,421.945404 171.225052,421.942474 
z"/>
<path fill="#754729" opacity="1.000000" stroke="none" 
	d="
M398.916718,263.202972 
	C395.466614,263.044983 391.989960,262.543610 388.572449,262.807587 
	C383.136017,263.227570 376.535065,261.321808 374.574554,270.171112 
	C374.184906,269.770447 373.795258,269.369781 373.405609,268.969116 
	C373.067657,263.887451 372.729675,258.805817 372.367859,253.365372 
	C372.952881,253.365372 374.176941,253.083099 374.366943,253.407135 
	C378.005310,259.612518 384.028717,256.572083 388.803497,256.656311 
	C397.218414,256.804749 405.661011,255.635803 414.084473,254.928848 
	C417.591797,254.634460 421.517242,255.097565 423.266327,250.769958 
	C423.406311,250.423630 424.413208,250.068100 424.419128,250.077866 
	C425.998840,252.695099 427.699005,255.270538 428.887024,258.063568 
	C429.091003,258.543152 427.164764,260.722412 426.124756,260.799652 
	C421.700012,261.128296 417.233093,260.832764 412.792175,261.018555 
	C409.503723,261.156097 406.231628,261.684601 402.278961,262.109375 
	C401.027252,262.830872 400.448822,263.481934 399.870422,264.132996 
	C399.719543,264.047821 399.568665,263.962616 399.355042,263.603333 
	C399.292236,263.329193 399.173492,263.145142 399.173492,263.145142 
	C399.173492,263.145142 398.916718,263.202972 398.916718,263.202972 
z"/>
<path fill="#764B2F" opacity="1.000000" stroke="none" 
	d="
M333.744690,382.580963 
	C334.929626,381.381836 335.907959,380.487091 336.886292,379.592346 
	C337.328278,379.642090 337.770294,379.691833 338.212311,379.741608 
	C335.011505,386.759949 339.976440,389.894440 343.826843,393.460236 
	C347.413513,396.781799 349.547394,402.451477 357.554596,401.110687 
	C356.136414,405.140686 355.049438,408.608643 353.564178,411.896698 
	C353.405823,412.247284 350.919678,411.546387 349.852295,411.384644 
	C348.571411,413.358612 347.516541,415.835022 345.704956,417.476105 
	C344.503113,418.564819 342.218231,418.458038 340.418213,418.886475 
	C340.971924,416.590546 341.311432,414.208221 342.185699,412.041626 
	C342.531219,411.185364 344.892975,410.834381 344.911743,410.210419 
	C344.977386,408.029633 345.162201,405.229126 343.962677,403.750000 
	C340.310486,399.246613 336.033142,395.250244 332.012054,391.069885 
	C329.658905,391.847015 327.792389,392.463440 324.876556,393.426392 
	C326.186951,387.543884 330.681122,385.879517 333.744690,382.580963 
z"/>
<path fill="#76492C" opacity="1.000000" stroke="none" 
	d="
M89.878296,211.994980 
	C90.234245,217.026093 89.913315,221.220734 85.307289,225.182434 
	C82.695648,227.428757 82.981804,233.044159 81.962845,237.142197 
	C81.649231,238.403473 81.335579,239.664764 81.021942,240.926041 
	C78.187012,235.700836 74.505424,233.457993 68.955200,233.809357 
	C67.127342,233.925064 65.191475,232.940521 63.361092,232.299026 
	C57.450203,230.227417 54.269306,231.700806 51.847698,237.518677 
	C51.364056,238.680649 50.280556,239.592941 49.176960,240.998138 
	C45.811443,231.311371 50.939022,223.301254 57.894451,224.026382 
	C62.369736,224.492950 66.677490,226.398605 71.122452,227.377029 
	C74.680756,228.160263 78.402679,229.076920 81.386253,226.740051 
	C79.376366,224.515091 77.594139,222.542160 76.333397,220.354858 
	C78.130394,220.863831 79.507919,222.316040 80.659630,222.154861 
	C82.879005,221.844238 84.970711,220.621445 87.115349,219.776886 
	C86.338120,218.822250 85.560883,217.867599 84.964783,216.598114 
	C85.753342,214.525055 86.360756,212.766830 87.252197,211.127411 
	C88.316917,211.495804 89.097603,211.745392 89.878296,211.994980 
z"/>
<path fill="#774C2F" opacity="1.000000" stroke="none" 
	d="
M291.853088,413.707245 
	C294.532440,412.552765 296.952972,411.660797 299.373474,410.768829 
	C299.766052,411.124146 300.158661,411.479431 300.551239,411.834717 
	C295.151367,415.488159 298.004791,419.012543 299.819092,422.638733 
	C301.502167,426.002686 302.708221,429.636658 304.660339,432.823395 
	C305.921875,434.882721 308.148499,436.350861 310.417175,438.542328 
	C308.809479,440.858459 306.711060,443.881470 304.393707,447.219910 
	C303.175018,446.070648 302.175720,445.128265 301.164154,444.174347 
	C299.287018,446.188965 297.811035,448.226501 295.886963,449.664368 
	C294.770935,450.498383 292.863068,450.759216 291.453522,450.501465 
	C290.784790,450.379150 289.897644,448.332611 290.087708,447.346313 
	C290.390320,445.776062 291.510620,443.082794 292.285828,443.082550 
	C299.968719,443.080170 299.344116,438.692230 297.249207,433.870209 
	C294.652832,427.894012 291.627899,422.103973 288.644653,415.936920 
	C288.885742,415.776154 290.239990,414.872955 291.853088,413.707245 
z"/>
<path fill="#764A2C" opacity="1.000000" stroke="none" 
	d="
M399.971680,264.391876 
	C400.448822,263.481934 401.027252,262.830872 401.858521,262.167236 
	C403.334991,263.900970 404.729004,265.553314 405.753265,267.409637 
	C410.620178,276.230408 405.077148,285.079071 394.746582,285.060028 
	C391.465546,285.053986 388.139221,284.623901 384.916199,285.035034 
	C381.587341,285.459656 378.358978,286.671722 374.667786,287.650360 
	C374.667786,284.225037 374.667786,279.730255 374.667786,276.579376 
	C377.843201,277.304199 381.153717,278.688721 384.450592,278.656921 
	C388.799042,278.614960 393.723358,278.531952 397.347504,276.545837 
	C403.436523,273.208954 404.857727,270.462219 399.971680,264.391876 
z"/>
<path fill="#74482B" opacity="1.000000" stroke="none" 
	d="
M93.898392,364.070801 
	C94.152344,362.013702 94.268585,360.281342 94.492226,356.948395 
	C98.186218,361.795441 101.045158,365.546783 103.904091,369.298096 
	C103.881889,369.812286 103.859680,370.326447 103.837479,370.840607 
	C98.014389,366.219025 95.441521,371.505524 92.170204,373.709900 
	C88.534416,376.159943 84.524719,379.088043 82.670258,382.802704 
	C81.327934,385.491547 83.235100,389.802582 83.725914,393.646759 
	C80.444801,393.138489 77.836334,391.029541 76.359756,387.506836 
	C74.579079,383.258728 75.409309,379.041168 78.590523,376.142334 
	C83.302544,371.848480 88.671440,368.275452 93.898392,364.070801 
z"/>
<path fill="#764C2F" opacity="1.000000" stroke="none" 
	d="
M104.811005,383.708740 
	C109.834282,381.857941 106.720802,377.941467 107.536629,373.657990 
	C111.551208,378.748932 114.832741,382.910339 118.435440,387.478973 
	C105.813057,387.913971 99.262169,395.650177 93.122864,404.633820 
	C90.350143,403.344696 87.300781,401.926971 83.125061,399.985565 
	C90.643837,394.362732 97.594482,389.164734 104.811005,383.708740 
z"/>
<path fill="#764A2C" opacity="1.000000" stroke="none" 
	d="
M364.938782,376.889221 
	C363.278564,372.208862 359.311310,371.199493 355.079254,371.016785 
	C349.704834,370.784698 349.493347,371.146149 341.891052,385.413940 
	C340.718567,381.951538 338.329651,378.427032 339.245026,376.949219 
	C342.186432,372.200592 343.146423,365.095612 350.192749,364.131744 
	C359.182007,362.902039 370.441162,367.279388 371.756653,377.848877 
	C371.050873,378.959198 370.521057,379.490997 369.721588,379.905548 
	C368.966675,379.463715 368.481476,379.139130 367.874512,378.625183 
	C366.814789,377.920288 365.876770,377.404755 364.938782,376.889221 
z"/>
<path fill="#76492B" opacity="1.000000" stroke="none" 
	d="
M372.237701,302.936310 
	C372.635651,298.778870 373.121765,294.972412 373.607880,291.165985 
	C376.658112,296.666138 381.765411,295.353790 386.022430,295.847870 
	C389.434448,296.243805 392.916260,296.040680 396.367188,296.095673 
	C396.698425,296.100952 397.069611,296.139404 397.355927,296.012695 
	C399.402832,295.106598 401.432526,294.161743 403.467712,293.229187 
	C404.726532,296.752441 405.985382,300.275696 407.646210,304.924042 
	C403.354156,304.531860 399.850891,304.360748 396.394775,303.862427 
	C390.645050,303.033417 384.943573,301.842743 379.179718,301.158936 
	C377.864136,301.002869 376.404999,302.370056 374.958160,302.885162 
	C374.137085,303.177490 373.206879,303.163422 372.237701,302.936310 
z"/>
<path fill="#764A2C" opacity="1.000000" stroke="none" 
	d="
M342.016937,157.972610 
	C337.693817,158.896500 335.038849,162.798569 335.080688,168.166946 
	C335.133423,174.933258 337.842377,178.862381 343.143250,179.951508 
	C344.404846,180.210724 345.631195,180.641418 347.887451,181.280273 
	C336.144104,185.233597 329.781921,181.339447 327.898560,170.296127 
	C327.772827,169.558792 327.086029,168.917130 326.334412,167.865402 
	C326.008606,167.499847 326.009949,167.182938 326.009949,167.182938 
	C327.790344,164.254196 329.570740,161.325439 331.807648,158.028107 
	C332.508026,157.418304 332.751892,157.177109 332.995789,156.935913 
	C332.995789,156.935913 332.997955,157.001495 333.156189,156.833130 
	C333.541626,156.418503 333.768860,156.172226 333.996094,155.925949 
	C333.996094,155.925949 334.003540,155.995056 334.156372,155.825363 
	C334.539886,155.406311 334.770569,155.156952 335.001251,154.907578 
	C335.001251,154.907578 334.974121,154.979599 335.289246,154.918518 
	C336.706970,153.847076 337.809570,152.836700 338.912201,151.826309 
	C338.912201,151.826309 338.975037,151.872223 339.336700,151.923172 
	C341.475250,152.912384 343.252106,153.850632 344.801392,154.935944 
	C344.399017,155.385742 344.224243,155.688522 343.815369,156.155334 
	C343.059845,156.870468 342.538391,157.421539 342.016937,157.972610 
z"/>
<path fill="#774D34" opacity="1.000000" stroke="none" 
	d="
M382.339447,236.103546 
	C382.001678,235.314865 382.002533,234.631943 382.454590,233.540894 
	C389.793793,232.571625 396.695862,231.431168 403.566132,231.598373 
	C411.845703,231.799866 414.624664,233.272354 417.864410,223.061279 
	C417.864410,223.061279 417.949493,222.984695 417.992432,222.945755 
	C421.994965,228.097977 424.236115,233.935104 425.314575,240.534973 
	C424.178467,240.604691 423.448883,240.838547 423.289276,240.632004 
	C416.852875,232.301483 407.934540,236.827469 400.073212,236.251419 
	C394.304779,235.828735 388.478516,236.194763 382.339447,236.103546 
z"/>
<path fill="#734527" opacity="1.000000" stroke="none" 
	d="
M134.800140,399.972748 
	C140.277374,407.292175 140.123215,417.193970 130.926361,423.478363 
	C125.256622,427.352631 115.603432,428.732727 110.358383,421.622864 
	C117.596443,424.320892 122.799690,422.791260 127.199219,417.438324 
	C130.756805,413.109772 132.126862,408.408417 132.119446,402.328918 
	C133.094604,401.075745 133.947372,400.524231 134.800140,399.972748 
z"/>
<path fill="#774829" opacity="1.000000" stroke="none" 
	d="
M150.064117,413.728821 
	C145.755508,416.306274 145.113098,418.897858 147.418045,422.829407 
	C148.894073,425.346985 150.292801,428.008942 151.122925,430.786469 
	C153.130310,437.503113 150.703644,441.213440 143.251953,442.487762 
	C142.528915,441.391296 142.221115,440.654968 141.913315,439.918640 
	C146.019058,437.183838 145.668076,434.713409 143.142914,430.397125 
	C140.374405,425.664856 136.028305,420.304016 141.358261,413.797729 
	C143.820160,410.792480 146.314011,411.208527 149.596649,411.361877 
	C150.044250,412.369904 150.054184,413.049377 150.064117,413.728821 
z"/>
<path fill="#774829" opacity="1.000000" stroke="none" 
	d="
M124.084061,395.738922 
	C113.813576,398.523865 108.281952,406.886902 109.615570,417.414459 
	C109.751717,418.489197 109.150558,419.657288 108.836601,421.020660 
	C102.891785,417.115326 100.280838,409.112305 103.404434,403.565247 
	C108.070862,395.278351 116.969872,389.816925 123.679947,393.464966 
	C124.078598,394.499023 124.081329,395.118958 124.084061,395.738922 
z"/>
<path fill="#75482A" opacity="1.000000" stroke="none" 
	d="
M99.987526,146.894272 
	C106.229836,142.040558 113.403442,141.928207 120.075981,146.579651 
	C125.685059,150.489761 128.702911,158.307098 126.517479,164.716492 
	C125.490204,165.079208 124.876091,165.061157 124.152740,164.691360 
	C123.476212,163.149368 122.949471,161.937729 122.335098,160.772278 
	C118.074356,152.689819 108.308525,147.770142 101.068665,149.765808 
	C100.639954,148.591934 100.313736,147.743103 99.987526,146.894272 
z"/>
<path fill="#774A2C" opacity="1.000000" stroke="none" 
	d="
M90.104248,211.719269 
	C89.097603,211.745392 88.316917,211.495804 86.936539,210.986725 
	C83.910835,209.526062 81.484818,208.324921 78.854263,206.871185 
	C77.720894,206.110596 76.792061,205.602600 75.863220,205.094604 
	C75.863220,205.094604 75.928688,205.082672 75.795753,204.797714 
	C72.741379,202.716827 69.819939,200.920898 66.638626,199.257370 
	C65.902916,200.214920 65.427071,201.040054 64.951233,201.865189 
	C64.466110,202.178284 63.980991,202.491364 62.878151,202.912323 
	C61.563324,203.005585 60.866219,202.990982 60.169109,202.976379 
	C60.586063,194.371613 64.365425,191.984024 71.573402,195.731781 
	C76.766113,198.431702 81.950150,201.154449 87.226624,203.682129 
	C88.342247,204.216568 89.843155,203.946701 91.776405,204.151886 
	C93.253708,204.817139 94.121140,205.377930 94.988571,205.938721 
	C95.618912,209.621109 92.737999,210.332153 90.104248,211.719269 
z"/>
<path fill="#75482A" opacity="1.000000" stroke="none" 
	d="
M84.269318,180.938889 
	C87.761505,183.337524 91.143890,185.922379 94.784592,188.069138 
	C97.197647,189.492004 99.980751,190.287292 103.535851,191.749069 
	C102.753380,193.047150 101.439659,195.226532 99.572205,197.713928 
	C98.006042,198.009567 96.993629,197.997208 95.981209,197.984833 
	C95.981209,197.984833 95.994591,197.543640 95.944046,197.160583 
	C95.567757,196.555115 95.242004,196.332687 94.916252,196.110260 
	C89.471603,192.468140 84.026947,188.826035 78.113388,184.727203 
	C76.381561,183.470551 75.118637,182.670624 73.855713,181.870697 
	C73.916969,180.849701 73.978226,179.828690 74.402580,178.335464 
	C77.572609,178.206390 80.379539,178.549561 83.186470,178.892731 
	C83.186470,178.892731 83.112663,178.936188 83.183395,179.189911 
	C83.592522,179.942062 83.930923,180.440475 84.269318,180.938889 
z"/>
<path fill="#764C2F" opacity="1.000000" stroke="none" 
	d="
M325.720276,166.943176 
	C326.009949,167.182938 326.008606,167.499847 326.009216,167.658295 
	C319.566101,167.449463 315.551758,163.012146 310.372681,159.084610 
	C312.639038,157.891098 314.179504,157.079880 315.953003,156.145920 
	C315.044312,151.657562 314.123810,147.111053 312.893372,142.598022 
	C313.498474,141.180283 314.413483,139.729034 315.619354,138.139023 
	C316.100739,138.576111 316.291321,139.151978 316.989716,139.857590 
	C317.497559,139.987335 317.956543,139.994202 317.956543,139.994202 
	C318.410309,140.017715 318.864044,140.041229 319.663940,140.388123 
	C320.014862,141.138550 320.019714,141.565582 320.024536,141.992630 
	C321.826569,150.229553 323.628571,158.466492 325.720276,166.943176 
z"/>
<path fill="#744626" opacity="1.000000" stroke="none" 
	d="
M118.001167,176.874115 
	C112.733742,179.926834 107.244431,179.791214 102.127525,176.998596 
	C95.831795,173.562622 93.631744,167.686447 94.291901,159.992615 
	C95.230225,158.179489 95.983475,157.074249 96.812088,156.368530 
	C97.980606,159.392548 98.474487,162.583435 100.300423,164.515320 
	C103.425110,167.821304 107.383690,170.339127 111.321259,173.361969 
	C113.767342,174.648697 115.884254,175.761414 118.001167,176.874115 
z"/>
<path fill="#775137" opacity="1.000000" stroke="none" 
	d="
M345.028992,154.788895 
	C343.252106,153.850632 341.475250,152.912384 339.313690,151.954559 
	C347.100586,148.797012 355.943573,151.173264 359.464111,158.212830 
	C360.692657,160.669434 360.875092,164.669952 359.706879,167.078552 
	C357.669708,171.278549 354.753601,173.446777 350.692871,168.464859 
	C347.967560,165.121338 345.113434,161.882812 342.166931,158.284973 
	C342.538391,157.421539 343.059845,156.870468 344.113647,156.318344 
	C347.374054,159.193130 350.102142,162.068985 352.794861,164.907547 
	C357.597382,161.302856 357.961853,159.261475 353.513977,156.320221 
	C351.311310,154.863632 347.895782,155.241180 345.028992,154.788895 
z"/>
<path fill="#754D33" opacity="1.000000" stroke="none" 
	d="
M369.991272,380.022827 
	C370.521057,379.490997 371.050873,378.959198 371.780396,378.229004 
	C375.112366,382.276062 374.587372,386.376068 370.304382,391.117371 
	C365.864655,396.032196 360.918701,397.565491 356.926392,394.595642 
	C355.760986,393.728760 355.039185,390.418915 355.758850,389.199554 
	C358.240814,384.994141 361.449493,381.217529 364.660095,377.083435 
	C365.876770,377.404755 366.814789,377.920288 367.528168,378.727905 
	C365.443909,381.619110 363.430084,384.126648 361.804413,386.864716 
	C361.198425,387.885376 361.499329,389.444489 361.386658,390.758118 
	C362.917725,390.652435 364.723175,391.032959 365.929688,390.352112 
	C369.936066,388.091370 370.614563,384.250397 369.991272,380.022827 
z"/>
<path fill="#774525" opacity="1.000000" stroke="none" 
	d="
M387.868988,322.930908 
	C384.332458,324.654358 380.932617,327.121338 377.205170,327.806671 
	C375.154907,328.183655 372.553406,325.562531 370.085358,323.645538 
	C370.294525,321.989349 370.618744,320.980743 370.942993,319.972168 
	C374.387817,322.817810 377.423523,322.789032 380.676056,319.335449 
	C384.287262,315.501038 388.485474,312.392975 394.684143,313.549591 
	C393.901825,315.197540 392.636383,316.344269 391.589996,317.664581 
	C390.256958,319.346558 389.101166,321.168976 387.868988,322.930908 
z"/>
<path fill="#7E5841" opacity="1.000000" stroke="none" 
	d="
M388.233643,322.936371 
	C389.101166,321.168976 390.256958,319.346558 391.589996,317.664581 
	C392.636383,316.344269 393.901825,315.197540 395.104065,313.623230 
	C399.920227,313.649292 402.644012,317.150452 402.707306,321.003876 
	C402.764954,324.511353 400.923035,328.568054 398.700378,331.439880 
	C396.731659,333.983582 393.412415,334.140839 392.263092,329.502625 
	C393.901978,328.429504 396.001404,327.697388 396.991272,326.221191 
	C397.931885,324.818512 397.712067,322.637726 398.002502,320.799072 
	C395.832550,320.606110 393.622498,320.091827 391.509460,320.355377 
	C390.448059,320.487732 389.563080,322.034637 388.233643,322.936371 
z"/>
<path fill="#754D33" opacity="1.000000" stroke="none" 
	d="
M83.130066,178.501251 
	C80.379539,178.549561 77.572609,178.206390 74.419739,177.951569 
	C73.682953,176.842484 73.292091,175.645035 72.769966,174.045425 
	C76.695427,173.981674 81.395462,175.006714 79.469200,168.450958 
	C79.281181,167.811066 82.165405,165.879257 83.881142,165.254608 
	C84.599770,164.992981 86.697357,166.416901 86.912140,167.360397 
	C87.244087,168.818497 86.734703,170.615234 86.151581,172.099152 
	C85.332344,174.183914 84.118652,176.113693 83.130066,178.501251 
z"/>
<path fill="#775137" opacity="1.000000" stroke="none" 
	d="
M150.435913,413.789368 
	C150.054184,413.049377 150.044250,412.369904 150.021637,411.350891 
	C150.008957,411.011322 150.000320,410.999725 150.252701,411.009430 
	C150.505081,411.019135 150.999496,411.015228 150.999481,411.015259 
	C157.713425,414.403229 164.427353,417.791199 171.183167,421.560852 
	C168.204559,421.945404 165.674820,416.385986 162.099762,421.450256 
	C160.831039,423.078888 159.696899,424.406494 157.788605,426.640289 
	C157.140045,423.996338 156.070786,422.040039 156.346542,420.296448 
	C157.079407,415.662476 154.642090,414.282684 150.435913,413.789368 
z"/>
<path fill="#73503A" opacity="1.000000" stroke="none" 
	d="
M320.423279,141.954391 
	C320.019714,141.565582 320.014862,141.138550 320.004700,140.391312 
	C321.341370,139.699371 322.798950,139.544571 323.998474,138.905457 
	C325.839264,137.924683 327.435120,136.486649 329.268951,135.489182 
	C330.222229,134.970703 331.719788,134.451645 332.528748,134.844498 
	C335.829651,136.447601 338.959656,138.402618 343.042938,140.737000 
	C334.797577,141.174545 327.809814,141.545349 320.423279,141.954391 
z"/>
<path fill="#7A5640" opacity="1.000000" stroke="none" 
	d="
M370.928894,319.570496 
	C370.618744,320.980743 370.294525,321.989349 369.930969,323.310638 
	C366.672363,317.918030 367.197998,311.669037 372.038452,307.850830 
	C374.349274,306.027985 377.695648,306.137207 380.843658,309.132111 
	C376.588745,311.789307 369.952911,312.112854 370.928894,319.570496 
z"/>
<path fill="#754D33" opacity="1.000000" stroke="none" 
	d="
M75.277130,330.542847 
	C74.043343,327.525757 72.953476,324.369019 76.486397,323.151489 
	C79.292183,322.184540 83.032089,322.881226 83.424927,326.552063 
	C83.647842,328.635101 81.497459,330.972107 80.102173,333.839508 
	C78.082153,332.547424 76.776024,331.711945 75.277130,330.542847 
z"/>
<path fill="#754A2E" opacity="1.000000" stroke="none" 
	d="
M200.202911,134.349091 
	C197.413956,134.408951 194.929947,134.207260 191.112686,133.897324 
	C193.057999,130.489777 193.902161,127.736420 195.763306,126.309502 
	C196.642838,125.635178 200.227493,126.981934 201.183960,128.375565 
	C202.000107,129.564728 200.810303,132.130630 200.202911,134.349091 
z"/>
<path fill="#754A2E" opacity="1.000000" stroke="none" 
	d="
M242.242798,435.685089 
	C240.175171,432.631012 240.313599,429.750000 243.247299,428.351593 
	C245.558487,427.249939 248.774338,427.470276 249.696625,430.761108 
	C250.107132,432.225891 249.622513,435.075775 248.681000,435.537720 
	C246.973267,436.375610 244.619339,435.896423 242.242798,435.685089 
z"/>
<path fill="#73503A" opacity="1.000000" stroke="none" 
	d="
M141.547760,439.947479 
	C142.221115,440.654968 142.528915,441.391296 142.878387,442.426697 
	C139.634445,441.670288 136.079346,441.093445 133.133255,439.434906 
	C129.661865,437.480591 130.560852,432.722321 134.737762,430.232819 
	C134.716949,434.979828 136.142456,438.742188 141.547760,439.947479 
z"/>
<path fill="#774D34" opacity="1.000000" stroke="none" 
	d="
M422.039307,300.290955 
	C421.328857,302.491669 421.007812,304.859894 419.671936,305.828796 
	C418.725647,306.515076 415.547394,305.838745 414.917145,304.815186 
	C414.115265,303.512848 414.216553,300.797516 415.102753,299.483093 
	C417.238770,296.315186 419.779999,297.798218 422.039307,300.290955 
z"/>
<path fill="#73503A" opacity="1.000000" stroke="none" 
	d="
M60.125305,203.408722 
	C60.866219,202.990982 61.563324,203.005585 62.608383,203.020020 
	C62.970936,205.766220 62.489040,208.477936 65.614899,210.386292 
	C66.605309,210.990952 66.613358,213.639038 66.529625,215.325104 
	C66.501602,215.889297 64.161263,216.992584 63.955132,216.784134 
	C62.897171,215.714325 61.779675,214.394272 61.445923,212.981415 
	C60.740189,209.993912 60.507957,206.894547 60.125305,203.408722 
z"/>
<path fill="#774A2C" opacity="1.000000" stroke="none" 
	d="
M84.783646,216.912964 
	C85.560883,217.867599 86.338120,218.822250 87.115349,219.776886 
	C84.970711,220.621445 82.879005,221.844238 80.659630,222.154861 
	C79.507919,222.316040 78.130394,220.863831 76.522919,220.069733 
	C76.167488,219.248352 76.144012,218.497711 76.576721,217.371124 
	C78.095985,216.968597 79.159065,216.941986 80.489540,217.081787 
	C82.099167,217.136459 83.441406,217.024719 84.783646,216.912964 
z"/>
<path fill="#7A5640" opacity="1.000000" stroke="none" 
	d="
M118.332451,176.822617 
	C115.884254,175.761414 113.767342,174.648697 111.740936,173.265137 
	C118.309113,173.993011 121.756119,170.253738 124.261971,165.043091 
	C124.876091,165.061157 125.490204,165.079208 126.411522,165.093262 
	C125.272018,167.714920 123.961823,170.429810 122.326408,172.932144 
	C121.374977,174.387909 119.902023,175.502823 118.332451,176.822617 
z"/>
<path fill="#EAD5C5" opacity="1.000000" stroke="none" 
	d="
M358.734924,214.982849 
	C362.093109,215.241653 365.115082,215.622665 369.039459,215.981659 
	C374.960815,215.908676 379.979706,215.857697 384.998627,215.806717 
	C388.212372,217.424393 385.000763,218.088242 384.168213,219.122894 
	C382.910583,218.411148 381.976685,217.133163 381.063599,217.147827 
	C374.859009,217.247482 368.654449,217.550003 362.458893,217.932373 
	C359.227356,218.131836 357.898621,217.343399 358.734924,214.982849 
z"/>
<path fill="#7A5640" opacity="1.000000" stroke="none" 
	d="
M124.365875,395.953674 
	C124.081329,395.118958 124.078598,394.499023 124.065689,393.569244 
	C127.585556,395.280823 131.115585,397.302185 134.722885,399.648132 
	C133.947372,400.524231 133.094604,401.075745 132.100159,401.914001 
	C129.521545,400.189941 127.084618,398.179169 124.365875,395.953674 
z"/>
<path fill="#7E5841" opacity="1.000000" stroke="none" 
	d="
M96.736717,155.969009 
	C95.983475,157.074249 95.230225,158.179489 94.364899,159.561035 
	C94.421646,154.999908 93.402779,149.687012 99.658730,147.024506 
	C100.313736,147.743103 100.639954,148.591934 100.921326,150.075500 
	C99.496567,152.463150 98.116638,154.216080 96.736717,155.969009 
z"/>
<path fill="#754D33" opacity="1.000000" stroke="none" 
	d="
M287.804626,113.732063 
	C288.250214,114.467278 288.472473,114.999702 288.856079,115.772797 
	C288.079041,120.665222 284.645813,120.060745 281.163666,120.053062 
	C280.917236,115.085823 284.783295,114.852600 287.804626,113.732063 
z"/>
<path fill="#73503A" opacity="1.000000" stroke="none" 
	d="
M95.669174,198.135773 
	C96.993629,197.997208 98.006042,198.009567 99.398232,198.021194 
	C98.366211,200.528122 96.954430,203.035812 95.265610,205.741119 
	C94.121140,205.377930 93.253708,204.817139 92.118668,204.099243 
	C93.019768,202.057007 94.188461,200.171875 95.669174,198.135773 
z"/>
<path fill="#76492C" opacity="1.000000" stroke="none" 
	d="
M80.222153,216.915375 
	C79.159065,216.941986 78.095985,216.968597 76.634209,216.999207 
	C76.113869,213.336288 75.992218,209.669373 75.866898,205.548523 
	C76.792061,205.602600 77.720894,206.110596 78.833786,207.302383 
	C79.419289,210.962570 79.820724,213.938980 80.222153,216.915375 
z"/>
<path fill="#74482B" opacity="1.000000" stroke="none" 
	d="
M385.002686,215.546875 
	C379.979706,215.857697 374.960815,215.908676 369.478943,215.905930 
	C369.924500,215.011108 370.833008,214.169983 371.922668,213.075684 
	C376.104095,213.254471 380.104431,213.686417 384.558655,214.182953 
	C385.010651,214.594055 385.008698,214.940536 385.002686,215.546875 
z"/>
<path fill="#76492C" opacity="1.000000" stroke="none" 
	d="
M66.898499,199.124954 
	C69.819939,200.920898 72.741379,202.716827 75.786118,204.829559 
	C73.174034,203.900803 70.438652,202.655228 67.387428,200.899536 
	C67.013893,199.967926 66.956192,199.546448 66.898499,199.124954 
z"/>
<path fill="#754D33" opacity="1.000000" stroke="none" 
	d="
M73.565994,182.077942 
	C75.118637,182.670624 76.381561,183.470551 77.812012,184.538513 
	C76.580238,185.084518 75.180931,185.362518 73.432068,185.709961 
	C73.374596,184.446609 73.325439,183.365891 73.565994,182.077942 
z"/>
<path fill="#775137" opacity="1.000000" stroke="none" 
	d="
M163.889862,422.373535 
	C168.359085,421.835724 167.035416,424.189087 165.508560,426.719604 
	C164.841034,425.498047 164.415192,424.082458 163.889862,422.373535 
z"/>
<path fill="#764C2F" opacity="1.000000" stroke="none" 
	d="
M309.318787,146.869202 
	C309.923035,145.547333 310.831940,144.082642 312.095337,142.606995 
	C311.507690,143.972824 310.565582,145.349594 309.318787,146.869202 
z"/>
<path fill="#775137" opacity="1.000000" stroke="none" 
	d="
M338.581390,151.861969 
	C337.809570,152.836700 336.706970,153.847076 335.253235,154.904892 
	C336.018280,153.934113 337.134430,152.915878 338.581390,151.861969 
z"/>
<path fill="#73503A" opacity="1.000000" stroke="none" 
	d="
M66.638626,199.257370 
	C66.956192,199.546448 67.013893,199.967926 67.099838,200.708984 
	C66.602882,201.310837 66.077667,201.593109 65.251846,201.870285 
	C65.427071,201.040054 65.902916,200.214920 66.638626,199.257370 
z"/>
<path fill="#73503A" opacity="1.000000" stroke="none" 
	d="
M95.027451,196.338913 
	C95.242004,196.332687 95.567757,196.555115 95.938858,196.939941 
	C95.702370,196.924088 95.420517,196.745834 95.027451,196.338913 
z"/>
<path fill="#754D33" opacity="1.000000" stroke="none" 
	d="
M84.201706,180.625351 
	C83.930923,180.440475 83.592522,179.942062 83.161789,179.152939 
	C83.424339,179.345428 83.779213,179.828629 84.201706,180.625351 
z"/>
<path fill="#775137" opacity="1.000000" stroke="none" 
	d="
M334.739380,154.993835 
	C334.770569,155.156952 334.539886,155.406311 334.121674,155.827759 
	C334.115295,155.693268 334.296417,155.386673 334.739380,154.993835 
z"/>
<path fill="#774829" opacity="1.000000" stroke="none" 
	d="
M150.915436,410.834351 
	C150.999496,411.015228 150.505081,411.019135 150.257904,411.013855 
	C150.284286,410.890228 150.557831,410.771851 150.915436,410.834351 
z"/>
<path fill="#775137" opacity="1.000000" stroke="none" 
	d="
M333.728577,155.995941 
	C333.768860,156.172226 333.541626,156.418503 333.123657,156.828690 
	C333.108978,156.683716 333.285004,156.374832 333.728577,155.995941 
z"/>
<path fill="#775137" opacity="1.000000" stroke="none" 
	d="
M332.725037,157.002960 
	C332.751892,157.177109 332.508026,157.418304 332.062317,157.819489 
	C332.058411,157.676300 332.256378,157.373154 332.725037,157.002960 
z"/>
<path fill="#73503A" opacity="1.000000" stroke="none" 
	d="
M317.880798,139.823807 
	C317.956543,139.994202 317.497559,139.987335 317.268555,139.985107 
	C317.294708,139.873062 317.549866,139.763245 317.880798,139.823807 
z"/>
<path fill="#764A2C" opacity="1.000000" stroke="none" 
	d="
M398.942444,263.288696 
	C398.916718,263.202972 399.173492,263.145142 399.173492,263.145142 
	C399.173492,263.145142 399.292236,263.329193 399.213013,263.385620 
	C399.133820,263.442047 398.968140,263.374390 398.942444,263.288696 
z"/>
<path fill="#774D34" opacity="1.000000" stroke="none" 
	d="
M381.286133,236.719116 
	C381.260956,236.556534 381.463104,236.387543 381.835999,236.115509 
	C381.930389,236.303314 381.765961,236.536728 381.286133,236.719116 
z"/>
<path fill="#000000" opacity="1.000000" stroke="none" 
	d="
M287.739624,139.040527 
	C285.143494,140.331467 282.856384,140.914001 281.781433,137.880096 
	C281.408020,136.826126 281.628052,134.741684 282.337158,134.269623 
	C285.070984,132.449631 288.022858,132.240875 291.011292,134.804794 
	C289.949707,136.273331 289.013977,137.567795 287.739624,139.040527 
z"/>
<path fill="#000000" opacity="1.000000" stroke="none" 
	d="
M417.518158,223.040283 
	C414.624664,233.272354 411.845703,231.799866 403.566132,231.598373 
	C396.695862,231.431168 389.793793,232.571625 382.453735,233.199417 
	C384.841644,229.837952 387.875946,226.549759 390.471313,222.945511 
	C393.558899,218.657761 397.606079,218.136963 402.537415,218.007980 
	C408.282776,217.857742 413.217041,218.615616 417.518158,223.040283 
z"/>
<path fill="#000000" opacity="1.000000" stroke="none" 
	d="
M319.176483,429.187256 
	C320.252594,426.965057 321.159393,424.760468 322.730255,423.243561 
	C324.328339,421.700256 326.580536,420.834320 330.074127,418.768188 
	C329.521667,421.743134 329.819061,424.334167 328.693390,425.353302 
	C326.148438,427.657318 324.562286,433.133270 319.176483,429.187256 
z"/>
<path fill="#000000" opacity="1.000000" stroke="none" 
	d="
M80.489540,217.081787 
	C79.820724,213.938980 79.419289,210.962570 79.038330,207.554962 
	C81.484818,208.324921 83.910835,209.526062 86.652512,210.867920 
	C86.360756,212.766830 85.753342,214.525055 84.964783,216.598129 
	C83.441406,217.024719 82.099167,217.136459 80.489540,217.081787 
z"/>
<path fill="#000000" opacity="1.000000" stroke="none" 
	d="
M369.721588,379.905548 
	C370.614563,384.250397 369.936066,388.091370 365.929688,390.352112 
	C364.723175,391.032959 362.917725,390.652435 361.386658,390.758118 
	C361.499329,389.444489 361.198425,387.885376 361.804413,386.864716 
	C363.430084,384.126648 365.443909,381.619110 367.649902,378.917297 
	C368.481476,379.139130 368.966675,379.463715 369.721588,379.905548 
z"/>
<path fill="#000000" opacity="1.000000" stroke="none" 
	d="
M344.801392,154.935944 
	C347.895782,155.241180 351.311310,154.863632 353.513977,156.320221 
	C357.961853,159.261475 357.597382,161.302856 352.794861,164.907547 
	C350.102142,162.068985 347.374054,159.193130 344.347717,156.154297 
	C344.224243,155.688522 344.399017,155.385742 344.801392,154.935944 
z"/>
<path fill="#000000" opacity="1.000000" stroke="none" 
	d="
M96.812088,156.368530 
	C98.116638,154.216080 99.496567,152.463150 101.023819,150.400528 
	C108.308525,147.770142 118.074356,152.689819 122.335098,160.772278 
	C122.949471,161.937729 123.476212,163.149368 124.152740,164.691360 
	C121.756119,170.253738 118.309113,173.993011 111.411758,173.091110 
	C107.383690,170.339127 103.425110,167.821304 100.300423,164.515320 
	C98.474487,162.583435 97.980606,159.392548 96.812088,156.368530 
z"/>
</svg>